MEDIAINFO:

General
Complete name : D:\tem\narut\subida\Naruto Shippuden 87 DVBrip xvid audio castellano.avi
Format : AVI
Format/Info : Audio Video Interleave
File size : 180 MiB
Duration : 19mn 32s
Overall bit rate : 1 288 Kbps
Writing application : VirtualDubMod 1.5.10.4 || AKO+ || (build 2550/release)
Writing library : VirtualDubMod build 2550/release

Video
ID : 0
Format : MPEG-4 Visual
Format profile : Advanced Simple@L5
Format settings, BVOP : Yes
Format settings, QPel : No
Format settings, GMC : No warppoints
Format settings, Matrix : Default (MPEG)
Codec ID : XVID
Codec ID/Hint : XviD
Duration : 19mn 32s
Bit rate : 1 150 Kbps
Width : 640 pixels
Height : 356 pixels
Display aspect ratio : 16:9
Frame rate : 25.000 fps
Color space : YUV
Chroma subsampling : 4:2:0
Bit depth : 8 bits
Scan type : Progressive
Compression mode : Lossy
Bits/(Pixel*Frame) : 0.202
Stream size : 161 MiB (89%)
Writing library : XviD 58

Audio
ID : 1
Format : MPEG Audio
Format version : Version 1
Format profile : Layer 2
Codec ID : 50
Duration : 19mn 32s
Bit rate mode : Constant
Bit rate : 128 Kbps
Channel(s) : 2 channels
Sampling rate : 48.0 KHz
Compression mode : Lossy
Stream size : 17.9 MiB (10%)
Alignment : Aligned on interleaves
Interleave, duration : 40 ms (1.00 video frame)
Interleave, preload duration : 504 ms

CAPTURAS: